<svg width="21" height="20" viewBox="0 0 21 20" fill="none" xmlns="http://www.w3.org/2000/svg">
<mask id="mask0_838_3052" style="mask-type:alpha" maskUnits="userSpaceOnUse" x="0" y="0" width="21" height="20">
<rect x="0.333374" width="20" height="20" fill="#D9D9D9"/>
</mask>
<g mask="url(#mask0_838_3052)">
<path d="M6.94375 8.1448L9.7375 3.58855C9.8125 3.46355 9.90625 3.37292 10.0188 3.31667C10.1313 3.26042 10.25 3.2323 10.375 3.2323C10.5 3.2323 10.6188 3.26042 10.7313 3.31667C10.8438 3.37292 10.9375 3.46355 11.0125 3.58855L13.8062 8.1448C13.8812 8.2698 13.9188 8.40105 13.9188 8.53855C13.9188 8.67605 13.8875 8.80105 13.825 8.91355C13.7625 9.02605 13.675 9.11667 13.5625 9.18542C13.45 9.25417 13.3188 9.28855 13.1688 9.28855H7.58125C7.43125 9.28855 7.3 9.25417 7.1875 9.18542C7.075 9.11667 6.9875 9.02605 6.925 8.91355C6.8625 8.80105 6.83125 8.67605 6.83125 8.53855C6.83125 8.40105 6.86875 8.2698 6.94375 8.1448ZM14.5 17.5386C13.5625 17.5386 12.7656 17.2104 12.1094 16.5542C11.4531 15.8979 11.125 15.101 11.125 14.1635C11.125 13.226 11.4531 12.4292 12.1094 11.7729C12.7656 11.1167 13.5625 10.7885 14.5 10.7885C15.4375 10.7885 16.2344 11.1167 16.8906 11.7729C17.5469 12.4292 17.875 13.226 17.875 14.1635C17.875 15.101 17.5469 15.8979 16.8906 16.5542C16.2344 17.2104 15.4375 17.5386 14.5 17.5386ZM3.625 16.4136V11.9135C3.625 11.701 3.69687 11.5229 3.84062 11.3792C3.98438 11.2354 4.1625 11.1635 4.375 11.1635H8.875C9.0875 11.1635 9.26562 11.2354 9.40938 11.3792C9.55312 11.5229 9.625 11.701 9.625 11.9135V16.4136C9.625 16.626 9.55312 16.8042 9.40938 16.9479C9.26562 17.0917 9.0875 17.1636 8.875 17.1636H4.375C4.1625 17.1636 3.98438 17.0917 3.84062 16.9479C3.69687 16.8042 3.625 16.626 3.625 16.4136Z" fill="white"/>
</g>
</svg>
