<svg width="20" height="20" viewBox="0 0 20 20" fill="none" xmlns="http://www.w3.org/2000/svg">
<mask id="mask0_838_3057" style="mask-type:alpha" maskUnits="userSpaceOnUse" x="0" y="0" width="20" height="20">
<rect width="20" height="20" fill="#D9D9D9"/>
</mask>
<g mask="url(#mask0_838_3057)">
<path d="M6.61038 8.1448L9.40413 3.58855C9.47913 3.46355 9.57288 3.37292 9.68538 3.31667C9.79788 3.26042 9.91663 3.2323 10.0416 3.2323C10.1666 3.2323 10.2854 3.26042 10.3979 3.31667C10.5104 3.37292 10.6041 3.46355 10.6791 3.58855L13.4729 8.1448C13.5479 8.2698 13.5854 8.40105 13.5854 8.53855C13.5854 8.67605 13.5541 8.80105 13.4916 8.91355C13.4291 9.02605 13.3416 9.11667 13.2291 9.18542C13.1166 9.25417 12.9854 9.28855 12.8354 9.28855H7.24788C7.09788 9.28855 6.96663 9.25417 6.85413 9.18542C6.74163 9.11667 6.65413 9.02605 6.59163 8.91355C6.52913 8.80105 6.49788 8.67605 6.49788 8.53855C6.49788 8.40105 6.53538 8.2698 6.61038 8.1448ZM14.1666 17.5386C13.2291 17.5386 12.4323 17.2104 11.776 16.5542C11.1198 15.8979 10.7916 15.101 10.7916 14.1635C10.7916 13.226 11.1198 12.4292 11.776 11.7729C12.4323 11.1167 13.2291 10.7885 14.1666 10.7885C15.1041 10.7885 15.901 11.1167 16.5573 11.7729C17.2135 12.4292 17.5416 13.226 17.5416 14.1635C17.5416 15.101 17.2135 15.8979 16.5573 16.5542C15.901 17.2104 15.1041 17.5386 14.1666 17.5386ZM3.29163 16.4136V11.9135C3.29163 11.701 3.3635 11.5229 3.50725 11.3792C3.651 11.2354 3.82913 11.1635 4.04163 11.1635H8.54163C8.75413 11.1635 8.93225 11.2354 9.076 11.3792C9.21975 11.5229 9.29163 11.701 9.29163 11.9135V16.4136C9.29163 16.626 9.21975 16.8042 9.076 16.9479C8.93225 17.0917 8.75413 17.1636 8.54163 17.1636H4.04163C3.82913 17.1636 3.651 17.0917 3.50725 16.9479C3.3635 16.8042 3.29163 16.626 3.29163 16.4136Z" fill="#9A9FA7"/>
</g>
</svg>
