<svg width="28" height="28" viewBox="0 0 28 28" fill="none" xmlns="http://www.w3.org/2000/svg">
<mask id="mask0_535_11944" style="mask-type:alpha" maskUnits="userSpaceOnUse" x="0" y="0" width="28" height="28">
<rect width="28" height="28" fill="#D9D9D9"/>
</mask>
<g mask="url(#mask0_535_11944)">
<path d="M12.4541 15.5458H6.81854C6.38921 15.5458 6.02423 15.3955 5.72362 15.0949C5.42301 14.7945 5.27271 14.4295 5.27271 14C5.27271 13.5705 5.42301 13.2055 5.72362 12.9051C6.02423 12.6045 6.38921 12.4542 6.81854 12.4542H12.4541V6.81858C12.4541 6.38925 12.6044 6.02428 12.905 5.72367C13.2055 5.42306 13.5704 5.27275 14 5.27275C14.4295 5.27275 14.7945 5.42306 15.0949 5.72367C15.3955 6.02428 15.5458 6.38925 15.5458 6.81858V12.4542H21.1814C21.6107 12.4542 21.9757 12.6045 22.2763 12.9051C22.5769 13.2055 22.7272 13.5705 22.7272 14C22.7272 14.4295 22.5769 14.7945 22.2763 15.0949C21.9757 15.3955 21.6107 15.5458 21.1814 15.5458H15.5458V21.1814C15.5458 21.6107 15.3955 21.9757 15.0949 22.2763C14.7945 22.5769 14.4295 22.7272 14 22.7272C13.5704 22.7272 13.2055 22.5769 12.905 22.2763C12.6044 21.9757 12.4541 21.6107 12.4541 21.1814V15.5458Z" fill="currentColor"/>
</g>
</svg>
