<svg width="28" height="28" viewBox="0 0 28 28" fill="none" xmlns="http://www.w3.org/2000/svg">
<mask id="mask0_535_11950" style="mask-type:alpha" maskUnits="userSpaceOnUse" x="0" y="0" width="28" height="28">
<rect width="28" height="28" fill="#D9D9D9"/>
</mask>
<g mask="url(#mask0_535_11950)">
<path d="M18.1986 14.264L13.7361 9.80146C13.6311 9.69646 13.5567 9.58271 13.5129 9.46021C13.4692 9.33771 13.4473 9.20646 13.4473 9.06646C13.4473 8.92646 13.4692 8.79521 13.5129 8.67271C13.5567 8.55021 13.6311 8.43646 13.7361 8.33146L18.1986 3.86896C18.3036 3.76396 18.4173 3.68958 18.5398 3.64583C18.6623 3.60208 18.7936 3.58021 18.9336 3.58021C19.0736 3.58021 19.2048 3.60208 19.3273 3.64583C19.4498 3.68958 19.5636 3.76396 19.6686 3.86896L24.1311 8.33146C24.2361 8.43646 24.3105 8.55021 24.3542 8.67271C24.398 8.79521 24.4198 8.92646 24.4198 9.06646C24.4198 9.20646 24.398 9.33771 24.3542 9.46021C24.3105 9.58271 24.2361 9.69646 24.1311 9.80146L19.6686 14.264C19.5636 14.369 19.4498 14.4433 19.3273 14.4871C19.2048 14.5308 19.0736 14.5527 18.9336 14.5527C18.7936 14.5527 18.6623 14.5308 18.5398 14.4871C18.4173 14.4433 18.3036 14.369 18.1986 14.264ZM4.60107 11.849V5.54896C4.60107 5.25146 4.7017 5.00208 4.90295 4.80083C5.1042 4.59958 5.35357 4.49896 5.65107 4.49896H11.9511C12.2486 4.49896 12.498 4.59958 12.6992 4.80083C12.9004 5.00208 13.0011 5.25146 13.0011 5.54896V11.849C13.0011 12.1465 12.9004 12.3958 12.6992 12.5971C12.498 12.7983 12.2486 12.899 11.9511 12.899H5.65107C5.35357 12.899 5.1042 12.7983 4.90295 12.5971C4.7017 12.3958 4.60107 12.1465 4.60107 11.849ZM15.1011 22.349V16.049C15.1011 15.7515 15.2017 15.5021 15.403 15.3008C15.6042 15.0996 15.8536 14.999 16.1511 14.999H22.4511C22.7486 14.999 22.9979 15.0996 23.1992 15.3008C23.4004 15.5021 23.5011 15.7515 23.5011 16.049V22.349C23.5011 22.6465 23.4004 22.8958 23.1992 23.0971C22.9979 23.2983 22.7486 23.399 22.4511 23.399H16.1511C15.8536 23.399 15.6042 23.2983 15.403 23.0971C15.2017 22.8958 15.1011 22.6465 15.1011 22.349ZM4.60107 22.349V16.049C4.60107 15.7515 4.7017 15.5021 4.90295 15.3008C5.1042 15.0996 5.35357 14.999 5.65107 14.999H11.9511C12.2486 14.999 12.498 15.0996 12.6992 15.3008C12.9004 15.5021 13.0011 15.7515 13.0011 16.049V22.349C13.0011 22.6465 12.9004 22.8958 12.6992 23.0971C12.498 23.2983 12.2486 23.399 11.9511 23.399H5.65107C5.35357 23.399 5.1042 23.2983 4.90295 23.0971C4.7017 22.8958 4.60107 22.6465 4.60107 22.349Z" fill="currentColor"/>
</g>
</svg>
