<svg width="28" height="28" viewBox="0 0 28 28" fill="none" xmlns="http://www.w3.org/2000/svg">
<mask id="mask0_535_11941" style="mask-type:alpha" maskUnits="userSpaceOnUse" x="0" y="0" width="28" height="28">
<rect width="28" height="28" fill="#D9D9D9"/>
</mask>
<g mask="url(#mask0_535_11941)">
<path d="M1.16675 20.0667C1.16675 19.4056 1.33689 18.7979 1.67716 18.2437C2.01744 17.6896 2.46953 17.2667 3.03341 16.975C4.23897 16.3722 5.46397 15.9201 6.70841 15.6187C7.95286 15.3174 9.21675 15.1667 10.5001 15.1667C11.7834 15.1667 13.0473 15.3174 14.2917 15.6187C15.5362 15.9201 16.7612 16.3722 17.9667 16.975C18.5306 17.2667 18.9827 17.6896 19.323 18.2437C19.6633 18.7979 19.8334 19.4056 19.8334 20.0667V21C19.8334 21.6417 19.6049 22.191 19.148 22.6479C18.6911 23.1049 18.1417 23.3333 17.5001 23.3333H3.50008C2.85841 23.3333 2.30911 23.1049 1.85216 22.6479C1.39522 22.191 1.16675 21.6417 1.16675 21V20.0667ZM21.5251 23.3333C21.739 22.9833 21.8994 22.609 22.0063 22.2104C22.1133 21.8118 22.1667 21.4083 22.1667 21V19.8333C22.1667 18.9778 21.9286 18.1562 21.4522 17.3687C20.9758 16.5812 20.3001 15.9056 19.4251 15.3417C20.4167 15.4583 21.3501 15.6576 22.2251 15.9396C23.1001 16.2215 23.9167 16.5667 24.6751 16.975C25.3751 17.3639 25.9098 17.7965 26.2792 18.2729C26.6487 18.7493 26.8334 19.2694 26.8334 19.8333V21C26.8334 21.6417 26.6049 22.191 26.148 22.6479C25.6911 23.1049 25.1417 23.3333 24.5001 23.3333H21.5251ZM10.5001 14C9.21675 14 8.11814 13.5431 7.20425 12.6292C6.29036 11.7153 5.83341 10.6167 5.83341 9.33333C5.83341 8.05 6.29036 6.95139 7.20425 6.0375C8.11814 5.12361 9.21675 4.66666 10.5001 4.66666C11.7834 4.66666 12.882 5.12361 13.7959 6.0375C14.7098 6.95139 15.1667 8.05 15.1667 9.33333C15.1667 10.6167 14.7098 11.7153 13.7959 12.6292C12.882 13.5431 11.7834 14 10.5001 14ZM22.1667 9.33333C22.1667 10.6167 21.7098 11.7153 20.7959 12.6292C19.882 13.5431 18.7834 14 17.5001 14C17.2862 14 17.014 13.9757 16.6834 13.9271C16.3529 13.8785 16.0806 13.825 15.8667 13.7667C16.3917 13.1444 16.7952 12.4542 17.0772 11.6958C17.3591 10.9375 17.5001 10.15 17.5001 9.33333C17.5001 8.51666 17.3591 7.72916 17.0772 6.97083C16.7952 6.2125 16.3917 5.52222 15.8667 4.9C16.139 4.80278 16.4112 4.73958 16.6834 4.71041C16.9556 4.68125 17.2279 4.66666 17.5001 4.66666C18.7834 4.66666 19.882 5.12361 20.7959 6.0375C21.7098 6.95139 22.1667 8.05 22.1667 9.33333Z" fill="black"/>
</g>
</svg>
