<svg width="28" height="28" viewBox="0 0 28 28" fill="none" xmlns="http://www.w3.org/2000/svg">
<mask id="mask0_535_11969" style="mask-type:alpha" maskUnits="userSpaceOnUse" x="0" y="0" width="28" height="28">
<rect width="28" height="28" fill="#D9D9D9"/>
</mask>
<g mask="url(#mask0_535_11969)">
<path d="M1.1665 22.1667V18.6667C1.1665 18.0056 1.39498 17.4514 1.85192 17.0042C2.30887 16.5569 2.85817 16.3333 3.49984 16.3333H7.32067C7.70956 16.3333 8.079 16.4306 8.429 16.625C8.779 16.8194 9.06095 17.0819 9.27484 17.4125C9.83873 18.1708 10.5339 18.7639 11.3603 19.1917C12.1866 19.6194 13.0665 19.8333 13.9998 19.8333C14.9526 19.8333 15.8422 19.6194 16.6686 19.1917C17.495 18.7639 18.1804 18.1708 18.7248 17.4125C18.9776 17.0819 19.2741 16.8194 19.6144 16.625C19.9547 16.4306 20.3096 16.3333 20.679 16.3333H24.4998C25.1609 16.3333 25.7151 16.5569 26.1623 17.0042C26.6096 17.4514 26.8332 18.0056 26.8332 18.6667V22.1667C26.8332 22.4972 26.7214 22.7743 26.4978 22.9979C26.2741 23.2215 25.9971 23.3333 25.6665 23.3333H19.8332C19.5026 23.3333 19.2255 23.2215 19.0019 22.9979C18.7783 22.7743 18.6665 22.4972 18.6665 22.1667V20.6792C17.9859 21.1653 17.2519 21.5347 16.4644 21.7875C15.6769 22.0403 14.8554 22.1667 13.9998 22.1667C13.1637 22.1667 12.3471 22.0354 11.5498 21.7729C10.7526 21.5104 10.0137 21.1361 9.33317 20.65V22.1667C9.33317 22.4972 9.22137 22.7743 8.99775 22.9979C8.77414 23.2215 8.49706 23.3333 8.1665 23.3333H2.33317C2.00262 23.3333 1.72553 23.2215 1.50192 22.9979C1.27831 22.7743 1.1665 22.4972 1.1665 22.1667ZM13.9998 18.6667C13.2609 18.6667 12.5609 18.4965 11.8998 18.1563C11.2387 17.816 10.6846 17.3444 10.2373 16.7417C9.90678 16.2556 9.49359 15.8715 8.99775 15.5896C8.50192 15.3076 7.96234 15.1667 7.379 15.1667C7.80678 14.4472 8.71095 13.8785 10.0915 13.4604C11.4721 13.0424 12.7748 12.8333 13.9998 12.8333C15.2248 12.8333 16.5276 13.0424 17.9082 13.4604C19.2887 13.8785 20.1929 14.4472 20.6207 15.1667C20.0568 15.1667 19.5221 15.3076 19.0165 15.5896C18.511 15.8715 18.0929 16.2556 17.7623 16.7417C17.3346 17.3639 16.7901 17.8403 16.129 18.1708C15.4679 18.5014 14.7582 18.6667 13.9998 18.6667ZM4.6665 15.1667C3.69428 15.1667 2.86789 14.8264 2.18734 14.1458C1.50678 13.4653 1.1665 12.6389 1.1665 11.6667C1.1665 10.675 1.50678 9.84375 2.18734 9.17292C2.86789 8.50209 3.69428 8.16667 4.6665 8.16667C5.65817 8.16667 6.48942 8.50209 7.16025 9.17292C7.83109 9.84375 8.1665 10.675 8.1665 11.6667C8.1665 12.6389 7.83109 13.4653 7.16025 14.1458C6.48942 14.8264 5.65817 15.1667 4.6665 15.1667ZM23.3332 15.1667C22.361 15.1667 21.5346 14.8264 20.854 14.1458C20.1735 13.4653 19.8332 12.6389 19.8332 11.6667C19.8332 10.675 20.1735 9.84375 20.854 9.17292C21.5346 8.50209 22.361 8.16667 23.3332 8.16667C24.3248 8.16667 25.1561 8.50209 25.8269 9.17292C26.4978 9.84375 26.8332 10.675 26.8332 11.6667C26.8332 12.6389 26.4978 13.4653 25.8269 14.1458C25.1561 14.8264 24.3248 15.1667 23.3332 15.1667ZM13.9998 11.6667C13.0276 11.6667 12.2012 11.3264 11.5207 10.6458C10.8401 9.96528 10.4998 9.13889 10.4998 8.16667C10.4998 7.175 10.8401 6.34376 11.5207 5.67292C12.2012 5.00209 13.0276 4.66667 13.9998 4.66667C14.9915 4.66667 15.8228 5.00209 16.4936 5.67292C17.1644 6.34376 17.4998 7.175 17.4998 8.16667C17.4998 9.13889 17.1644 9.96528 16.4936 10.6458C15.8228 11.3264 14.9915 11.6667 13.9998 11.6667Z" fill="black"/>
</g>
</svg>
