<svg width="28" height="28" viewBox="0 0 28 28" fill="none" xmlns="http://www.w3.org/2000/svg">
<mask id="mask0_535_11947" style="mask-type:alpha" maskUnits="userSpaceOnUse" x="0" y="0" width="28" height="28">
<rect width="28" height="28" fill="#D9D9D9"/>
</mask>
<g mask="url(#mask0_535_11947)">
<path d="M14.0001 18.6667C15.4584 18.6667 16.698 18.1562 17.7188 17.1354C18.7396 16.1146 19.25 14.875 19.25 13.4167C19.25 11.9583 18.7396 10.7187 17.7188 9.69791C16.698 8.67708 15.4584 8.16666 14.0001 8.16666C12.5417 8.16666 11.3021 8.67708 10.2813 9.69791C9.26047 10.7187 8.75005 11.9583 8.75005 13.4167C8.75005 14.875 9.26047 16.1146 10.2813 17.1354C11.3021 18.1562 12.5417 18.6667 14.0001 18.6667ZM14.0001 16.5667C13.125 16.5667 12.3813 16.2604 11.7688 15.6479C11.1563 15.0354 10.85 14.2917 10.85 13.4167C10.85 12.5417 11.1563 11.7979 11.7688 11.1854C12.3813 10.5729 13.125 10.2667 14.0001 10.2667C14.8751 10.2667 15.6188 10.5729 16.2313 11.1854C16.8438 11.7979 17.1501 12.5417 17.1501 13.4167C17.1501 14.2917 16.8438 15.0354 16.2313 15.6479C15.6188 16.2604 14.8751 16.5667 14.0001 16.5667ZM14.0001 22.1667C11.3945 22.1667 9.01741 21.4667 6.8688 20.0667C4.72019 18.6667 3.02366 16.8194 1.77922 14.525C1.68199 14.35 1.60908 14.1701 1.56047 13.9854C1.51185 13.8007 1.48755 13.6111 1.48755 13.4167C1.48755 13.2222 1.51185 13.0326 1.56047 12.8479C1.60908 12.6632 1.68199 12.4833 1.77922 12.3083C3.02366 10.0139 4.72019 8.16666 6.8688 6.76666C9.01741 5.36666 11.3945 4.66666 14.0001 4.66666C16.6056 4.66666 18.9827 5.36666 21.1313 6.76666C23.2799 8.16666 24.9764 10.0139 26.2209 12.3083C26.3181 12.4833 26.391 12.6632 26.4396 12.8479C26.4882 13.0326 26.5126 13.2222 26.5126 13.4167C26.5126 13.6111 26.4882 13.8007 26.4396 13.9854C26.391 14.1701 26.3181 14.35 26.2209 14.525C24.9764 16.8194 23.2799 18.6667 21.1313 20.0667C18.9827 21.4667 16.6056 22.1667 14.0001 22.1667Z" fill="currentColor"/>
</g>
</svg>
