<svg width="28" height="28" viewBox="0 0 28 28" fill="none" xmlns="http://www.w3.org/2000/svg">
<mask id="mask0_591_1825" style="mask-type:alpha" maskUnits="userSpaceOnUse" x="0" y="0" width="28" height="28">
<rect width="28" height="28" fill="#D9D9D9"/>
</mask>
<g mask="url(#mask0_591_1825)">
<path d="M14.945 13.6219V10.2199C14.945 9.9522 14.8545 9.72776 14.6734 9.54664C14.4922 9.36551 14.2678 9.27495 14 9.27495C13.7323 9.27495 13.5079 9.36551 13.3267 9.54664C13.1456 9.72776 13.055 9.9522 13.055 10.2199V13.9763C13.055 14.1023 13.0787 14.2244 13.1259 14.3425C13.1732 14.4606 13.244 14.5669 13.3385 14.6614L16.457 17.7799C16.6303 17.9532 16.8508 18.0398 17.1185 18.0398C17.3863 18.0398 17.6068 17.9532 17.78 17.7799C17.9533 17.6067 18.0399 17.3862 18.0399 17.1184C18.0399 16.8507 17.9533 16.6302 17.78 16.4569L14.945 13.6219ZM14 23.4499C12.6928 23.4499 11.4643 23.2019 10.3145 22.7058C9.1648 22.2096 8.16467 21.5363 7.31417 20.6858C6.46367 19.8353 5.79036 18.8352 5.29424 17.6854C4.79811 16.5357 4.55005 15.3072 4.55005 13.9999C4.55005 12.6927 4.79811 11.4642 5.29424 10.3144C5.79036 9.1647 6.46367 8.16457 7.31417 7.31407C8.16467 6.46357 9.1648 5.79026 10.3145 5.29414C11.4643 4.79801 12.6928 4.54995 14 4.54995C15.3073 4.54995 16.5358 4.79801 17.6855 5.29414C18.8353 5.79026 19.8354 6.46357 20.6859 7.31407C21.5364 8.16457 22.2097 9.1647 22.7059 10.3144C23.202 11.4642 23.45 12.6927 23.45 13.9999C23.45 15.3072 23.202 16.5357 22.7059 17.6854C22.2097 18.8352 21.5364 19.8353 20.6859 20.6858C19.8354 21.5363 18.8353 22.2096 17.6855 22.7058C16.5358 23.2019 15.3073 23.4499 14 23.4499Z" fill="black"/>
</g>
</svg>
