<svg width="28" height="28" viewBox="0 0 28 28" fill="none" xmlns="http://www.w3.org/2000/svg">
<mask id="mask0_591_1932" style="mask-type:alpha" maskUnits="userSpaceOnUse" x="0" y="0" width="28" height="28">
<rect width="28" height="28" transform="matrix(-1 0 0 1 28 0)" fill="#D9D9D9"/>
</mask>
<g mask="url(#mask0_591_1932)">
<path d="M9.15827 15.225L11.6666 19.25C11.8805 19.5806 12.177 19.7167 12.5562 19.6583C12.9354 19.6 13.1735 19.3764 13.2708 18.9875L14.0874 15.7208L22.0499 23.6833C22.2638 23.8972 22.5312 24.009 22.852 24.0187C23.1729 24.0285 23.4499 23.9167 23.6833 23.6833C23.8972 23.4694 24.0041 23.1972 24.0041 22.8667C24.0041 22.5361 23.8972 22.2639 23.6833 22.05L15.7208 14.0583L18.9874 13.2417C19.3763 13.1444 19.5999 12.9062 19.6583 12.5271C19.7166 12.1479 19.5805 11.8514 19.2499 11.6375L15.2249 9.15833L15.5749 4.40416C15.6138 4.01527 15.4583 3.73333 15.1083 3.55833C14.7583 3.38333 14.4374 3.42222 14.1458 3.675L10.4999 6.7375L6.09577 4.95833C5.72632 4.80277 5.40549 4.86111 5.13327 5.13333C4.86104 5.40555 4.80271 5.72638 4.95827 6.09583L6.73743 10.5L3.67493 14.1167C3.42216 14.4083 3.38327 14.7292 3.55827 15.0792C3.73327 15.4292 4.01521 15.5847 4.4041 15.5458L9.15827 15.225ZM24.0916 7.40833C24.2083 7.29166 24.2666 7.15555 24.2666 7C24.2666 6.84444 24.2083 6.70833 24.0916 6.59166L22.5749 5.075C22.4583 4.95833 22.3222 4.9 22.1666 4.9C22.011 4.9 21.8749 4.95833 21.7583 5.075L20.2416 6.59166C20.1249 6.70833 20.0666 6.84444 20.0666 7C20.0666 7.15555 20.1249 7.29166 20.2416 7.40833L21.7583 8.925C21.8749 9.04166 22.011 9.1 22.1666 9.1C22.3222 9.1 22.4583 9.04166 22.5749 8.925L24.0916 7.40833ZM7.40827 24.0917L8.92493 22.575C9.0416 22.4583 9.09993 22.3222 9.09993 22.1667C9.09993 22.0111 9.0416 21.875 8.92493 21.7583L7.40827 20.2417C7.2916 20.125 7.15549 20.0667 6.99993 20.0667C6.84438 20.0667 6.70827 20.125 6.5916 20.2417L5.07493 21.7583C4.95827 21.875 4.89993 22.0111 4.89993 22.1667C4.89993 22.3222 4.95827 22.4583 5.07493 22.575L6.5916 24.0917C6.70827 24.2083 6.84438 24.2667 6.99993 24.2667C7.15549 24.2667 7.2916 24.2083 7.40827 24.0917Z" fill="black"/>
</g>
</svg>
