<svg width="28" height="28" viewBox="0 0 28 28" fill="none" xmlns="http://www.w3.org/2000/svg">
<mask id="mask0_591_2018" style="mask-type:alpha" maskUnits="userSpaceOnUse" x="0" y="0" width="28" height="28">
<rect width="28" height="28" fill="#D9D9D9"/>
</mask>
<g mask="url(#mask0_591_2018)">
<path d="M14.0002 15.6333L17.3835 19.0167C17.5974 19.2306 17.8696 19.3375 18.2002 19.3375C18.5307 19.3375 18.8029 19.2306 19.0168 19.0167C19.2307 18.8028 19.3377 18.5306 19.3377 18.2C19.3377 17.8694 19.2307 17.5972 19.0168 17.3833L15.6335 14L19.0168 10.6167C19.2307 10.4028 19.3377 10.1306 19.3377 9.8C19.3377 9.46945 19.2307 9.19723 19.0168 8.98334C18.8029 8.76945 18.5307 8.6625 18.2002 8.6625C17.8696 8.6625 17.5974 8.76945 17.3835 8.98334L14.0002 12.3667L10.6168 8.98334C10.4029 8.76945 10.1307 8.6625 9.80016 8.6625C9.46961 8.6625 9.19739 8.76945 8.9835 8.98334C8.76961 9.19723 8.66266 9.46945 8.66266 9.8C8.66266 10.1306 8.76961 10.4028 8.9835 10.6167L12.3668 14L8.9835 17.3833C8.76961 17.5972 8.66266 17.8694 8.66266 18.2C8.66266 18.5306 8.76961 18.8028 8.9835 19.0167C9.19739 19.2306 9.46961 19.3375 9.80016 19.3375C10.1307 19.3375 10.4029 19.2306 10.6168 19.0167L14.0002 15.6333ZM14.0002 25.6667C12.3863 25.6667 10.8696 25.3604 9.45016 24.7479C8.03072 24.1354 6.796 23.3042 5.746 22.2542C4.696 21.2042 3.86475 19.9694 3.25225 18.55C2.63975 17.1306 2.3335 15.6139 2.3335 14C2.3335 12.3861 2.63975 10.8694 3.25225 9.45C3.86475 8.03056 4.696 6.79584 5.746 5.74584C6.796 4.69584 8.03072 3.86459 9.45016 3.25209C10.8696 2.63959 12.3863 2.33334 14.0002 2.33334C15.6141 2.33334 17.1307 2.63959 18.5502 3.25209C19.9696 3.86459 21.2043 4.69584 22.2543 5.74584C23.3043 6.79584 24.1356 8.03056 24.7481 9.45C25.3606 10.8694 25.6668 12.3861 25.6668 14C25.6668 15.6139 25.3606 17.1306 24.7481 18.55C24.1356 19.9694 23.3043 21.2042 22.2543 22.2542C21.2043 23.3042 19.9696 24.1354 18.5502 24.7479C17.1307 25.3604 15.6141 25.6667 14.0002 25.6667Z" fill="black"/>
</g>
</svg>
