<svg width="28" height="28" viewBox="0 0 28 28" fill="none" xmlns="http://www.w3.org/2000/svg">
<mask id="mask0_535_11972" style="mask-type:alpha" maskUnits="userSpaceOnUse" x="0" y="0" width="28" height="28">
<rect width="28" height="28" fill="#D9D9D9"/>
</mask>
<g mask="url(#mask0_535_11972)">
<path d="M9.25465 11.4027L13.1659 5.02396C13.2709 4.84896 13.4021 4.72208 13.5596 4.64333C13.7171 4.56458 13.8834 4.52521 14.0584 4.52521C14.2334 4.52521 14.3996 4.56458 14.5571 4.64333C14.7146 4.72208 14.8459 4.84896 14.9509 5.02396L18.8621 11.4027C18.9671 11.5777 19.0196 11.7615 19.0196 11.954C19.0196 12.1465 18.9759 12.3215 18.8884 12.479C18.8009 12.6365 18.6784 12.7633 18.5209 12.8596C18.3634 12.9558 18.1796 13.004 17.9696 13.004H10.1471C9.93715 13.004 9.7534 12.9558 9.5959 12.8596C9.4384 12.7633 9.3159 12.6365 9.2284 12.479C9.1409 12.3215 9.09715 12.1465 9.09715 11.954C9.09715 11.7615 9.14965 11.5777 9.25465 11.4027ZM19.8334 24.554C18.5209 24.554 17.4053 24.0946 16.4865 23.1758C15.5678 22.2571 15.1084 21.1415 15.1084 19.829C15.1084 18.5165 15.5678 17.4008 16.4865 16.4821C17.4053 15.5633 18.5209 15.104 19.8334 15.104C21.1459 15.104 22.2615 15.5633 23.1803 16.4821C24.099 17.4008 24.5584 18.5165 24.5584 19.829C24.5584 21.1415 24.099 22.2571 23.1803 23.1758C22.2615 24.0946 21.1459 24.554 19.8334 24.554ZM4.6084 22.979V16.679C4.6084 16.3815 4.70902 16.1321 4.91027 15.9308C5.11152 15.7296 5.3609 15.629 5.6584 15.629H11.9584C12.2559 15.629 12.5053 15.7296 12.7065 15.9308C12.9078 16.1321 13.0084 16.3815 13.0084 16.679V22.979C13.0084 23.2765 12.9078 23.5258 12.7065 23.7271C12.5053 23.9283 12.2559 24.029 11.9584 24.029H5.6584C5.3609 24.029 5.11152 23.9283 4.91027 23.7271C4.70902 23.5258 4.6084 23.2765 4.6084 22.979Z" fill="black"/>
</g>
</svg>
