<svg width="28" height="28" viewBox="0 0 28 28" fill="none" xmlns="http://www.w3.org/2000/svg">
<mask id="mask0_535_11982" style="mask-type:alpha" maskUnits="userSpaceOnUse" x="0" y="0" width="28" height="28">
<rect width="28" height="28" fill="#D9D9D9"/>
</mask>
<g mask="url(#mask0_535_11982)">
<path d="M12.5999 22.4C12.2032 22.4 11.8707 22.2658 11.6024 21.9975C11.3341 21.7292 11.1999 21.3967 11.1999 21C11.1999 20.6033 11.3341 20.2708 11.6024 20.0025C11.8707 19.7342 12.2032 19.6 12.5999 19.6H15.3999C15.7966 19.6 16.1291 19.7342 16.3974 20.0025C16.6657 20.2708 16.7999 20.6033 16.7999 21C16.7999 21.3967 16.6657 21.7292 16.3974 21.9975C16.1291 22.2658 15.7966 22.4 15.3999 22.4H12.5999ZM6.9999 15.4C6.60324 15.4 6.27074 15.2658 6.0024 14.9975C5.73407 14.7292 5.5999 14.3967 5.5999 14C5.5999 13.6033 5.73407 13.2708 6.0024 13.0025C6.27074 12.7342 6.60324 12.6 6.9999 12.6H20.9999C21.3966 12.6 21.7291 12.7342 21.9974 13.0025C22.2657 13.2708 22.3999 13.6033 22.3999 14C22.3999 14.3967 22.2657 14.7292 21.9974 14.9975C21.7291 15.2658 21.3966 15.4 20.9999 15.4H6.9999ZM2.7999 8.4C2.40324 8.4 2.07074 8.26583 1.8024 7.9975C1.53407 7.72917 1.3999 7.39667 1.3999 7C1.3999 6.60333 1.53407 6.27083 1.8024 6.0025C2.07074 5.73417 2.40324 5.6 2.7999 5.6H25.1999C25.5966 5.6 25.9291 5.73417 26.1974 6.0025C26.4657 6.27083 26.5999 6.60333 26.5999 7C26.5999 7.39667 26.4657 7.72917 26.1974 7.9975C25.9291 8.26583 25.5966 8.4 25.1999 8.4H2.7999Z" fill="black"/>
</g>
</svg>
