<svg width="28" height="28" viewBox="0 0 28 28" fill="none" xmlns="http://www.w3.org/2000/svg">
<mask id="mask0_535_11962" style="mask-type:alpha" maskUnits="userSpaceOnUse" x="0" y="0" width="28" height="28">
<rect width="28" height="28" fill="#D9D9D9"/>
</mask>
<g mask="url(#mask0_535_11962)">
<path d="M18.9581 16.7139C18.7131 16.5739 18.5556 16.3596 18.4856 16.0708C18.4156 15.7821 18.4506 15.5152 18.5906 15.2702C18.7131 15.0777 18.8137 14.8721 18.8925 14.6533C18.9712 14.4346 19.0281 14.2114 19.0631 13.9839C19.1331 13.6864 19.2687 13.4414 19.47 13.2489C19.6712 13.0564 19.9206 12.9602 20.2181 12.9602C20.5156 12.9602 20.7606 13.0652 20.9531 13.2752C21.1456 13.4852 21.2244 13.7389 21.1894 14.0364C21.1369 14.4389 21.045 14.8327 20.9137 15.2177C20.7825 15.6027 20.6119 15.9702 20.4019 16.3202C20.2619 16.5652 20.0475 16.7271 19.7587 16.8058C19.47 16.8846 19.2031 16.8539 18.9581 16.7139ZM15.2831 12.3827L11.3719 8.47144C11.1794 8.27894 11.0306 8.05582 10.9256 7.80207C10.8206 7.54832 10.7681 7.28144 10.7681 7.00144V6.66019C10.7681 5.78519 11.0744 5.04144 11.6869 4.42894C12.2994 3.81644 13.0431 3.51019 13.9181 3.51019C14.7931 3.51019 15.5369 3.81644 16.1494 4.42894C16.7619 5.04144 17.0681 5.78519 17.0681 6.66019V11.6214C17.0681 12.0939 16.8537 12.4221 16.425 12.6058C15.9962 12.7896 15.6156 12.7152 15.2831 12.3827ZM12.8681 22.4102V20.2052C11.2581 19.9952 9.88 19.3214 8.73375 18.1839C7.5875 17.0464 6.89187 15.6639 6.64687 14.0364C6.61187 13.7389 6.69062 13.4852 6.88313 13.2752C7.07562 13.0652 7.32062 12.9602 7.61812 12.9602C7.91563 12.9602 8.165 13.0608 8.36625 13.2621C8.5675 13.4633 8.70312 13.7127 8.77312 14.0102C9.01813 15.2352 9.62625 16.2414 10.5975 17.0289C11.5688 17.8164 12.6756 18.2102 13.9181 18.2102C14.5131 18.2102 15.0775 18.1183 15.6112 17.9346C16.145 17.7508 16.6306 17.4927 17.0681 17.1602L18.5644 18.6564C18.0569 19.0589 17.5012 19.3958 16.8975 19.6671C16.2937 19.9383 15.6506 20.1177 14.9681 20.2052V22.4102C14.9681 22.7077 14.8675 22.9571 14.6662 23.1583C14.465 23.3596 14.2156 23.4602 13.9181 23.4602C13.6206 23.4602 13.3713 23.3596 13.17 23.1583C12.9688 22.9571 12.8681 22.7077 12.8681 22.4102ZM21.3731 24.4052L3.52312 6.55519C3.33062 6.36269 3.23438 6.11769 3.23438 5.82019C3.23438 5.52269 3.33062 5.27769 3.52312 5.08519C3.71562 4.89269 3.96062 4.79644 4.25812 4.79644C4.55562 4.79644 4.80062 4.89269 4.99312 5.08519L22.8431 22.9352C23.0356 23.1277 23.1319 23.3727 23.1319 23.6702C23.1319 23.9677 23.0356 24.2127 22.8431 24.4052C22.6506 24.5977 22.4056 24.6939 22.1081 24.6939C21.8106 24.6939 21.5656 24.5977 21.3731 24.4052Z" fill="black"/>
</g>
</svg>
