<svg width="28" height="28" viewBox="0 0 28 28" fill="none" xmlns="http://www.w3.org/2000/svg">
<mask id="mask0_548_13288" style="mask-type:alpha" maskUnits="userSpaceOnUse" x="0" y="0" width="28" height="28">
<rect width="28" height="28" fill="#D9D9D9"/>
</mask>
<g mask="url(#mask0_548_13288)">
<path d="M5.83341 22.1667C5.50286 22.1667 5.22578 22.0549 5.00216 21.8313C4.77855 21.6076 4.66675 21.3306 4.66675 21C4.66675 20.6694 4.77855 20.3924 5.00216 20.1688C5.22578 19.9451 5.50286 19.8333 5.83341 19.8333H7.00008V11.6667C7.00008 10.0528 7.48619 8.61875 8.45841 7.36459C9.43064 6.11042 10.6945 5.28889 12.2501 4.9V4.08334C12.2501 3.59722 12.4202 3.18403 12.7605 2.84375C13.1008 2.50347 13.514 2.33334 14.0001 2.33334C14.4862 2.33334 14.8994 2.50347 15.2397 2.84375C15.5799 3.18403 15.7501 3.59722 15.7501 4.08334V4.9C17.3056 5.28889 18.5695 6.11042 19.5417 7.36459C20.514 8.61875 21.0001 10.0528 21.0001 11.6667V19.8333H22.1667C22.4973 19.8333 22.7744 19.9451 22.998 20.1688C23.2216 20.3924 23.3334 20.6694 23.3334 21C23.3334 21.3306 23.2216 21.6076 22.998 21.8313C22.7744 22.0549 22.4973 22.1667 22.1667 22.1667H5.83341ZM14.0001 25.6667C13.3584 25.6667 12.8091 25.4382 12.3522 24.9813C11.8952 24.5243 11.6667 23.975 11.6667 23.3333H16.3334C16.3334 23.975 16.1049 24.5243 15.648 24.9813C15.1911 25.4382 14.6417 25.6667 14.0001 25.6667ZM9.33341 19.8333H18.6667V11.6667C18.6667 10.3833 18.2098 9.28473 17.2959 8.37084C16.382 7.45695 15.2834 7 14.0001 7C12.7167 7 11.6181 7.45695 10.7042 8.37084C9.79036 9.28473 9.33341 10.3833 9.33341 11.6667V19.8333Z" fill="black"/>
</g>
</svg>
