<svg width="28" height="28" viewBox="0 0 28 28" fill="none" xmlns="http://www.w3.org/2000/svg">
<mask id="mask0_535_11966" style="mask-type:alpha" maskUnits="userSpaceOnUse" x="0" y="0" width="28" height="28">
<rect width="28" height="28" fill="#D9D9D9"/>
</mask>
<g mask="url(#mask0_535_11966)">
<path d="M13.9998 16.0417C13.1248 16.0417 12.381 15.7354 11.7685 15.1229C11.156 14.5104 10.8498 13.7667 10.8498 12.8917V6.59165C10.8498 5.71665 11.156 4.9729 11.7685 4.3604C12.381 3.7479 13.1248 3.44165 13.9998 3.44165C14.8748 3.44165 15.6185 3.7479 16.231 4.3604C16.8435 4.9729 17.1498 5.71665 17.1498 6.59165V12.8917C17.1498 13.7667 16.8435 14.5104 16.231 15.1229C15.6185 15.7354 14.8748 16.0417 13.9998 16.0417ZM12.9498 22.3417V20.1629C11.3398 19.9354 9.96166 19.2529 8.81541 18.1154C7.66916 16.9779 6.97354 15.5954 6.72854 13.9679C6.69354 13.6704 6.77229 13.4167 6.96479 13.2067C7.15729 12.9967 7.40229 12.8917 7.69979 12.8917C7.99729 12.8917 8.24666 12.9923 8.44791 13.1935C8.64916 13.3948 8.78479 13.6442 8.85479 13.9417C9.09979 15.1667 9.70791 16.1729 10.6792 16.9604C11.6504 17.7479 12.7573 18.1417 13.9998 18.1417C15.2598 18.1417 16.371 17.7435 17.3335 16.9473C18.296 16.151 18.8998 15.1492 19.1448 13.9417C19.2148 13.6442 19.3504 13.3948 19.5517 13.1935C19.7529 12.9923 20.0023 12.8917 20.2998 12.8917C20.5973 12.8917 20.8423 12.9967 21.0348 13.2067C21.2273 13.4167 21.306 13.6704 21.271 13.9679C21.026 15.5604 20.3348 16.9342 19.1973 18.0892C18.0598 19.2442 16.6773 19.9354 15.0498 20.1629V22.3417C15.0498 22.6392 14.9492 22.8885 14.7479 23.0898C14.5467 23.291 14.2973 23.3917 13.9998 23.3917C13.7023 23.3917 13.4529 23.291 13.2517 23.0898C13.0504 22.8885 12.9498 22.6392 12.9498 22.3417Z" fill="black"/>
</g>
</svg>
